<mxfile host="Electron" modified="2023-04-21T06:50:50.086Z" agent="Mozilla/5.0 (Windows NT 10.0; Win64; x64) AppleWebKit/537.36 (KHTML, like Gecko) draw.io/21.2.1 Chrome/112.0.5615.87 Electron/24.1.2 Safari/537.36" etag="zVk3ooDNQOLKgXqIaqd4" version="21.2.1" type="device">
  <diagram name="페이지-1" id="GnYI31ZXgoJ5iP_FpeiA">
    <mxGraphModel dx="1687" dy="984" grid="1" gridSize="10" guides="1" tooltips="1" connect="1" arrows="1" fold="1" page="1" pageScale="1" pageWidth="4681" pageHeight="3300" math="0" shadow="0">
      <root>
        <mxCell id="0" />
        <mxCell id="1" parent="0" />
        <mxCell id="MfVlt7mA8dRQ4kwVD-Rl-42" style="rounded=0;orthogonalLoop=1;jettySize=auto;html=1;exitX=0.5;exitY=1;exitDx=0;exitDy=0;entryX=0.5;entryY=0;entryDx=0;entryDy=0;" parent="1" source="MfVlt7mA8dRQ4kwVD-Rl-29" target="MfVlt7mA8dRQ4kwVD-Rl-32" edge="1">
          <mxGeometry relative="1" as="geometry">
            <mxPoint x="470" y="410" as="sourcePoint" />
          </mxGeometry>
        </mxCell>
        <mxCell id="MfVlt7mA8dRQ4kwVD-Rl-65" value="" style="rounded=0;orthogonalLoop=1;jettySize=auto;html=1;" parent="1" source="MfVlt7mA8dRQ4kwVD-Rl-29" target="MfVlt7mA8dRQ4kwVD-Rl-64" edge="1">
          <mxGeometry relative="1" as="geometry" />
        </mxCell>
        <mxCell id="MfVlt7mA8dRQ4kwVD-Rl-29" value="학생" style="rounded=1;arcSize=10;whiteSpace=wrap;html=1;align=center;" parent="1" vertex="1">
          <mxGeometry x="440" y="360" width="140" height="40" as="geometry" />
        </mxCell>
        <mxCell id="MfVlt7mA8dRQ4kwVD-Rl-31" value="이름" style="ellipse;whiteSpace=wrap;html=1;align=center;" parent="1" vertex="1">
          <mxGeometry x="280" y="510" width="100" height="40" as="geometry" />
        </mxCell>
        <mxCell id="MfVlt7mA8dRQ4kwVD-Rl-32" value="학번" style="ellipse;whiteSpace=wrap;html=1;align=center;fontStyle=4;" parent="1" vertex="1">
          <mxGeometry x="160" y="510" width="100" height="40" as="geometry" />
        </mxCell>
        <mxCell id="MfVlt7mA8dRQ4kwVD-Rl-35" value="학과" style="ellipse;whiteSpace=wrap;html=1;align=center;" parent="1" vertex="1">
          <mxGeometry x="400" y="510" width="100" height="40" as="geometry" />
        </mxCell>
        <mxCell id="MfVlt7mA8dRQ4kwVD-Rl-36" value="학년" style="ellipse;whiteSpace=wrap;html=1;align=center;" parent="1" vertex="1">
          <mxGeometry x="520" y="510" width="100" height="40" as="geometry" />
        </mxCell>
        <mxCell id="MfVlt7mA8dRQ4kwVD-Rl-37" value="주소" style="ellipse;whiteSpace=wrap;html=1;align=center;" parent="1" vertex="1">
          <mxGeometry x="640" y="510" width="100" height="40" as="geometry" />
        </mxCell>
        <mxCell id="MfVlt7mA8dRQ4kwVD-Rl-38" value="전화번호" style="ellipse;whiteSpace=wrap;html=1;align=center;" parent="1" vertex="1">
          <mxGeometry x="760" y="510" width="100" height="40" as="geometry" />
        </mxCell>
        <mxCell id="MfVlt7mA8dRQ4kwVD-Rl-43" style="rounded=0;orthogonalLoop=1;jettySize=auto;html=1;exitX=0.5;exitY=1;exitDx=0;exitDy=0;entryX=0.5;entryY=0;entryDx=0;entryDy=0;" parent="1" source="MfVlt7mA8dRQ4kwVD-Rl-29" target="MfVlt7mA8dRQ4kwVD-Rl-31" edge="1">
          <mxGeometry relative="1" as="geometry">
            <mxPoint x="564.5" y="400" as="sourcePoint" />
            <mxPoint x="335.5" y="514" as="targetPoint" />
          </mxGeometry>
        </mxCell>
        <mxCell id="MfVlt7mA8dRQ4kwVD-Rl-44" style="rounded=0;orthogonalLoop=1;jettySize=auto;html=1;exitX=0.5;exitY=1;exitDx=0;exitDy=0;entryX=0.5;entryY=0;entryDx=0;entryDy=0;" parent="1" source="MfVlt7mA8dRQ4kwVD-Rl-29" target="MfVlt7mA8dRQ4kwVD-Rl-35" edge="1">
          <mxGeometry relative="1" as="geometry">
            <mxPoint x="485" y="410" as="sourcePoint" />
            <mxPoint x="340" y="520" as="targetPoint" />
          </mxGeometry>
        </mxCell>
        <mxCell id="MfVlt7mA8dRQ4kwVD-Rl-45" style="rounded=0;orthogonalLoop=1;jettySize=auto;html=1;exitX=0.5;exitY=1;exitDx=0;exitDy=0;entryX=0.5;entryY=0;entryDx=0;entryDy=0;" parent="1" source="MfVlt7mA8dRQ4kwVD-Rl-29" target="MfVlt7mA8dRQ4kwVD-Rl-36" edge="1">
          <mxGeometry relative="1" as="geometry">
            <mxPoint x="520" y="410" as="sourcePoint" />
            <mxPoint x="460" y="520" as="targetPoint" />
          </mxGeometry>
        </mxCell>
        <mxCell id="MfVlt7mA8dRQ4kwVD-Rl-46" style="rounded=0;orthogonalLoop=1;jettySize=auto;html=1;exitX=0.5;exitY=1;exitDx=0;exitDy=0;entryX=0.5;entryY=0;entryDx=0;entryDy=0;" parent="1" source="MfVlt7mA8dRQ4kwVD-Rl-29" target="MfVlt7mA8dRQ4kwVD-Rl-37" edge="1">
          <mxGeometry relative="1" as="geometry">
            <mxPoint x="520" y="410" as="sourcePoint" />
            <mxPoint x="580" y="520" as="targetPoint" />
          </mxGeometry>
        </mxCell>
        <mxCell id="MfVlt7mA8dRQ4kwVD-Rl-47" style="rounded=0;orthogonalLoop=1;jettySize=auto;html=1;exitX=0.5;exitY=1;exitDx=0;exitDy=0;entryX=0.5;entryY=0;entryDx=0;entryDy=0;" parent="1" source="MfVlt7mA8dRQ4kwVD-Rl-29" target="MfVlt7mA8dRQ4kwVD-Rl-38" edge="1">
          <mxGeometry relative="1" as="geometry">
            <mxPoint x="555" y="410" as="sourcePoint" />
            <mxPoint x="700" y="520" as="targetPoint" />
          </mxGeometry>
        </mxCell>
        <mxCell id="MfVlt7mA8dRQ4kwVD-Rl-48" style="rounded=0;orthogonalLoop=1;jettySize=auto;html=1;exitX=0.5;exitY=1;exitDx=0;exitDy=0;entryX=0.5;entryY=0;entryDx=0;entryDy=0;" parent="1" source="MfVlt7mA8dRQ4kwVD-Rl-49" target="MfVlt7mA8dRQ4kwVD-Rl-51" edge="1">
          <mxGeometry relative="1" as="geometry">
            <mxPoint x="1260" y="410" as="sourcePoint" />
          </mxGeometry>
        </mxCell>
        <mxCell id="MfVlt7mA8dRQ4kwVD-Rl-49" value="과목" style="rounded=1;arcSize=10;whiteSpace=wrap;html=1;align=center;" parent="1" vertex="1">
          <mxGeometry x="1230" y="360" width="141" height="40" as="geometry" />
        </mxCell>
        <mxCell id="MfVlt7mA8dRQ4kwVD-Rl-50" value="과목명" style="ellipse;whiteSpace=wrap;html=1;align=center;" parent="1" vertex="1">
          <mxGeometry x="1070" y="510" width="101" height="40" as="geometry" />
        </mxCell>
        <mxCell id="MfVlt7mA8dRQ4kwVD-Rl-51" value="과목코드" style="ellipse;whiteSpace=wrap;html=1;align=center;fontStyle=4;" parent="1" vertex="1">
          <mxGeometry x="950" y="510" width="101" height="40" as="geometry" />
        </mxCell>
        <mxCell id="MfVlt7mA8dRQ4kwVD-Rl-52" value="담당교수" style="ellipse;whiteSpace=wrap;html=1;align=center;" parent="1" vertex="1">
          <mxGeometry x="1190" y="510" width="101" height="40" as="geometry" />
        </mxCell>
        <mxCell id="MfVlt7mA8dRQ4kwVD-Rl-53" value="강의실" style="ellipse;whiteSpace=wrap;html=1;align=center;" parent="1" vertex="1">
          <mxGeometry x="1310" y="510" width="101" height="40" as="geometry" />
        </mxCell>
        <mxCell id="MfVlt7mA8dRQ4kwVD-Rl-54" value="연락처" style="ellipse;whiteSpace=wrap;html=1;align=center;" parent="1" vertex="1">
          <mxGeometry x="1430" y="510" width="101" height="40" as="geometry" />
        </mxCell>
        <mxCell id="MfVlt7mA8dRQ4kwVD-Rl-55" value="조교" style="ellipse;whiteSpace=wrap;html=1;align=center;" parent="1" vertex="1">
          <mxGeometry x="1550" y="510" width="101" height="40" as="geometry" />
        </mxCell>
        <mxCell id="MfVlt7mA8dRQ4kwVD-Rl-56" style="rounded=0;orthogonalLoop=1;jettySize=auto;html=1;exitX=0.5;exitY=1;exitDx=0;exitDy=0;entryX=0.5;entryY=0;entryDx=0;entryDy=0;" parent="1" source="MfVlt7mA8dRQ4kwVD-Rl-49" target="MfVlt7mA8dRQ4kwVD-Rl-50" edge="1">
          <mxGeometry relative="1" as="geometry">
            <mxPoint x="1354.5" y="400" as="sourcePoint" />
            <mxPoint x="1125.5" y="514" as="targetPoint" />
          </mxGeometry>
        </mxCell>
        <mxCell id="MfVlt7mA8dRQ4kwVD-Rl-57" style="rounded=0;orthogonalLoop=1;jettySize=auto;html=1;exitX=0.5;exitY=1;exitDx=0;exitDy=0;entryX=0.5;entryY=0;entryDx=0;entryDy=0;" parent="1" source="MfVlt7mA8dRQ4kwVD-Rl-49" target="MfVlt7mA8dRQ4kwVD-Rl-52" edge="1">
          <mxGeometry relative="1" as="geometry">
            <mxPoint x="1275" y="410" as="sourcePoint" />
            <mxPoint x="1130" y="520" as="targetPoint" />
          </mxGeometry>
        </mxCell>
        <mxCell id="MfVlt7mA8dRQ4kwVD-Rl-58" style="rounded=0;orthogonalLoop=1;jettySize=auto;html=1;exitX=0.5;exitY=1;exitDx=0;exitDy=0;entryX=0.5;entryY=0;entryDx=0;entryDy=0;" parent="1" source="MfVlt7mA8dRQ4kwVD-Rl-49" target="MfVlt7mA8dRQ4kwVD-Rl-53" edge="1">
          <mxGeometry relative="1" as="geometry">
            <mxPoint x="1310" y="410" as="sourcePoint" />
            <mxPoint x="1250" y="520" as="targetPoint" />
          </mxGeometry>
        </mxCell>
        <mxCell id="MfVlt7mA8dRQ4kwVD-Rl-59" style="rounded=0;orthogonalLoop=1;jettySize=auto;html=1;exitX=0.5;exitY=1;exitDx=0;exitDy=0;entryX=0.5;entryY=0;entryDx=0;entryDy=0;" parent="1" source="MfVlt7mA8dRQ4kwVD-Rl-49" target="MfVlt7mA8dRQ4kwVD-Rl-54" edge="1">
          <mxGeometry relative="1" as="geometry">
            <mxPoint x="1310" y="410" as="sourcePoint" />
            <mxPoint x="1370" y="520" as="targetPoint" />
          </mxGeometry>
        </mxCell>
        <mxCell id="MfVlt7mA8dRQ4kwVD-Rl-60" style="rounded=0;orthogonalLoop=1;jettySize=auto;html=1;exitX=0.5;exitY=1;exitDx=0;exitDy=0;entryX=0.5;entryY=0;entryDx=0;entryDy=0;" parent="1" source="MfVlt7mA8dRQ4kwVD-Rl-49" target="MfVlt7mA8dRQ4kwVD-Rl-55" edge="1">
          <mxGeometry relative="1" as="geometry">
            <mxPoint x="1345" y="410" as="sourcePoint" />
            <mxPoint x="1490" y="520" as="targetPoint" />
          </mxGeometry>
        </mxCell>
        <mxCell id="MfVlt7mA8dRQ4kwVD-Rl-64" value="수강신청" style="rhombus;whiteSpace=wrap;html=1;rounded=1;arcSize=10;" parent="1" vertex="1">
          <mxGeometry x="830" y="170" width="180" height="80" as="geometry" />
        </mxCell>
        <mxCell id="MfVlt7mA8dRQ4kwVD-Rl-66" value="" style="rounded=0;orthogonalLoop=1;jettySize=auto;html=1;exitX=0.5;exitY=0;exitDx=0;exitDy=0;entryX=1;entryY=1;entryDx=0;entryDy=0;" parent="1" source="MfVlt7mA8dRQ4kwVD-Rl-49" target="MfVlt7mA8dRQ4kwVD-Rl-64" edge="1">
          <mxGeometry relative="1" as="geometry">
            <mxPoint x="1220" y="270" as="sourcePoint" />
            <mxPoint x="930" y="407" as="targetPoint" />
          </mxGeometry>
        </mxCell>
      </root>
    </mxGraphModel>
  </diagram>
</mxfile>
